# xmcd CD database file
#
# Track frame offsets:
#	150
#	13480
#	29386
#	58215
#	81407
#	165852
#
# Disc length: 2407 seconds
#
# Revision: 0
# Processed by: cddbd v1.5.2PL0 Copyright (c) Steve Scherf et al.
# Submitted via: CDex 1.51
#
DISCID=48096506
DTITLE=Savoy Brown   - A Step Further
DYEAR=1969
DGENRE=Blues
TTITLE0=Made Up My Mind
TTITLE1=Waiting In The Bamboo groove
TTITLE2=Lifes One Act Play
TTITLE3=I`m Tired
TTITLE4=Savoy Brown Boogie A
TTITLE5=Savoy Brown Boogie B
EXTD=YEAR: 1969
EXTT0=
EXTT1=
EXTT2=
EXTT3=
EXTT4=
EXTT5=
PLAYORDER=
